<svg width="1440" height="941" viewBox="0 0 1440 941" fill="none" xmlns="http://www.w3.org/2000/svg">
<g clip-path="url(#clip0_38_373)">
<mask id="mask0_38_373" style="mask-type:luminance" maskUnits="userSpaceOnUse" x="0" y="0" width="1440" height="941">
<path d="M0.5 0.5H1439.5V940.5H0.5V0.5Z" fill="white" stroke="white"/>
</mask>
<g mask="url(#mask0_38_373)">
<circle cx="299.655" cy="601.655" r="455.5" transform="rotate(41.4681 299.655 601.655)" stroke="black" stroke-opacity="0.55" stroke-width="18"/>
<circle cx="270.474" cy="633.919" r="412" transform="rotate(41.4681 270.474 633.919)" stroke="black" stroke-opacity="0.55" stroke-width="18"/>
<circle cx="204.254" cy="708.852" r="312" transform="rotate(41.4681 204.254 708.852)" stroke="black" stroke-opacity="0.55" stroke-width="18"/>
<circle cx="91.0606" cy="837.692" r="140.5" transform="rotate(41.4681 91.0606 837.692)" stroke="black" stroke-opacity="0.55" stroke-width="18"/>
<circle cx="35.4355" cy="900.635" r="56.5" transform="rotate(41.4681 35.4355 900.635)" stroke="black" stroke-opacity="0.55" stroke-width="18"/>
<circle cx="464.5" cy="464.5" r="455.5" transform="matrix(-0.749325 0.662203 0.662203 0.749325 1170.12 -58)" stroke="#1400FF" stroke-opacity="0.55" stroke-width="18"/>
<circle cx="421" cy="421" r="412" transform="matrix(-0.749325 0.662203 0.662203 0.749325 1195.51 35.666)" stroke="#00FF38" stroke-opacity="0.55" stroke-width="18"/>
<circle cx="321" cy="321" r="312" transform="matrix(-0.749325 0.662203 0.662203 0.749325 1253.02 251.751)" stroke="#EBFF00" stroke-opacity="0.55" stroke-width="18"/>
<circle cx="149.5" cy="149.5" r="140.5" transform="matrix(-0.749325 0.662203 0.662203 0.749325 1351.27 622.668)" stroke="#8000FF" stroke-opacity="0.55" stroke-width="18"/>
<circle cx="65.5" cy="65.5" r="56.5" transform="matrix(-0.749325 0.662203 0.662203 0.749325 1399.58 804.18)" stroke="#AB0101" stroke-opacity="0.55" stroke-width="18"/>
<rect x="69" y="292" width="1257" height="275" fill="#010101" fill-opacity="0.5"/>
<path d="M208.688 424.5L214.438 403H200.938L195.188 424.5H208.688ZM174 424.5H187.625L193.562 402.875H179.938L180.938 398.25H194.625L202 371.438H209.688L202.312 398.25H215.812L223.062 371.438H230.625L223.188 398.25H236.812L235.625 402.875H222L216.25 424.5H229.875L228.5 429.188H215.062L207.812 456H200.062L207.5 429.188H194L186.75 456H179.188L186.438 429.188H173L174 424.5ZM270.438 453.688C275.729 453.146 279.125 451.958 280.625 450.125C282.125 448.25 282.875 443.938 282.875 437.188V385.188C282.875 380.562 282.146 377.562 280.688 376.188C279.229 374.771 275.917 373.938 270.75 373.688V371.312H296.062L325.688 435.875L354 371.312H379.5V373.688C374.75 374.021 371.688 374.896 370.312 376.312C368.938 377.688 368.25 380.646 368.25 385.188V442.125C368.25 446.792 368.938 449.792 370.312 451.125C371.688 452.417 374.75 453.271 379.5 453.688V456H343.625V453.688C348.792 453.271 352 452.354 353.25 450.938C354.542 449.479 355.188 446.042 355.188 440.625V383.125L322.438 456H320.688L288.5 386.125V437.188C288.5 444.188 289.521 448.75 291.562 450.875C292.896 452.25 295.875 453.188 300.5 453.688V456H270.438V453.688ZM384.625 398.562H411V400.5C408.917 400.542 407.375 400.729 406.375 401.062C404.458 401.604 403.5 402.667 403.5 404.25C403.5 404.833 403.604 405.438 403.812 406.062C404.021 406.646 404.396 407.542 404.938 408.75L419.562 441.188L431.312 408.5C431.438 408.167 431.625 407.417 431.875 406.25C432.167 405.083 432.312 404.292 432.312 403.875C432.312 402.792 431.938 402 431.188 401.5C430.438 401 429.479 400.708 428.312 400.625L426.375 400.5V398.562H443.562V400.5C441.854 400.708 440.562 401.292 439.688 402.25C438.854 403.208 438.125 404.542 437.5 406.25L417.812 458.375C414.396 467.375 411.125 473.896 408 477.938C404.875 481.979 400.917 484 396.125 484C393.792 484 391.604 483.417 389.562 482.25C387.521 481.083 386.5 479.229 386.5 476.688C386.5 475.021 387.104 473.646 388.312 472.562C389.562 471.521 391.125 471 393 471C394.083 471 395.688 471.396 397.812 472.188C399.979 472.979 401.521 473.375 402.438 473.375C404.771 473.375 407.229 470.667 409.812 465.25C412.396 459.833 413.688 456.208 413.688 454.375C413.688 454 413.625 453.542 413.5 453C413.375 452.458 413.229 451.979 413.062 451.562L393.062 408.312C391.646 405.229 390.396 403.208 389.312 402.25C388.271 401.25 386.708 400.604 384.625 400.312V398.562ZM534.25 394.562C534.25 386.729 530.875 381.354 524.125 378.438C520.5 376.854 515.917 376.062 510.375 376.062C507.75 376.062 506.125 376.333 505.5 376.875C504.917 377.375 504.625 378.521 504.625 380.312V413.688C506.917 413.896 508.417 414.021 509.125 414.062C509.833 414.104 510.521 414.125 511.188 414.125C517.062 414.125 521.688 413.292 525.062 411.625C531.188 408.583 534.25 402.896 534.25 394.562ZM480.938 453.688C485.812 453.229 488.854 452.271 490.062 450.812C491.271 449.312 491.875 445.917 491.875 440.625V385.188C491.875 380.729 491.188 377.792 489.812 376.375C488.479 374.958 485.521 374.062 480.938 373.688V371.312H514.688C525.521 371.312 533.812 373.417 539.562 377.625C545.312 381.833 548.188 387.375 548.188 394.25C548.188 402.958 545 409.271 538.625 413.188C532.25 417.104 524.271 419.062 514.688 419.062C513.312 419.062 511.542 419.042 509.375 419C507.25 418.917 505.667 418.875 504.625 418.875V442.125C504.625 446.958 505.354 450 506.812 451.25C508.312 452.5 511.625 453.312 516.75 453.688V456H480.938V453.688ZM579.438 397.375C585.312 397.375 590.458 399.417 594.875 403.5C599.292 407.542 601.5 413.292 601.5 420.75H561.812C562.229 430.417 564.417 437.458 568.375 441.875C572.333 446.292 577.021 448.5 582.438 448.5C586.812 448.5 590.5 447.354 593.5 445.062C596.5 442.771 599.271 439.521 601.812 435.312L604 436.062C602.292 441.354 599.083 446.25 594.375 450.75C589.708 455.25 583.979 457.5 577.188 457.5C569.354 457.5 563.292 454.542 559 448.625C554.75 442.708 552.625 435.896 552.625 428.188C552.625 419.812 555.104 412.583 560.062 406.5C565.021 400.417 571.479 397.375 579.438 397.375ZM575.812 401.938C571.062 401.938 567.438 404.042 564.938 408.25C563.604 410.5 562.646 413.333 562.062 416.75H588.438C587.979 412.583 587.188 409.479 586.062 407.438C584.021 403.771 580.604 401.938 575.812 401.938ZM607.562 453.938C611.396 453.604 613.938 452.938 615.188 451.938C616.438 450.896 617.062 448.708 617.062 445.375V417.188C617.062 413.062 616.667 410.125 615.875 408.375C615.125 406.583 613.729 405.688 611.688 405.688C611.271 405.688 610.708 405.75 610 405.875C609.333 405.958 608.625 406.083 607.875 406.25V404.188C610.25 403.354 612.688 402.5 615.188 401.625C617.688 400.75 619.417 400.125 620.375 399.75C622.458 398.958 624.604 398.062 626.812 397.062C627.104 397.062 627.271 397.167 627.312 397.375C627.396 397.583 627.438 398.021 627.438 398.688V408.938C630.104 405.229 632.667 402.333 635.125 400.25C637.625 398.167 640.208 397.125 642.875 397.125C645 397.125 646.729 397.771 648.062 399.062C649.396 400.312 650.062 401.896 650.062 403.812C650.062 405.521 649.542 406.958 648.5 408.125C647.5 409.292 646.229 409.875 644.688 409.875C643.104 409.875 641.5 409.146 639.875 407.688C638.292 406.229 637.042 405.5 636.125 405.5C634.667 405.5 632.875 406.688 630.75 409.062C628.625 411.396 627.562 413.812 627.562 416.312V444.5C627.562 448.083 628.396 450.583 630.062 452C631.729 453.375 634.5 454.021 638.375 453.938V456H607.562V453.938ZM681.438 397.062C686.646 397.062 691.125 398.417 694.875 401.125C698.667 403.792 700.562 406.729 700.562 409.938C700.562 411.312 700.083 412.604 699.125 413.812C698.167 414.979 696.688 415.562 694.688 415.562C693.229 415.562 691.938 415.062 690.812 414.062C689.729 413.062 688.938 411.604 688.438 409.688L687.688 406.688C687.146 404.479 686.208 402.917 684.875 402C683.5 401.125 681.688 400.688 679.438 400.688C674.688 400.688 670.667 402.771 667.375 406.938C664.125 411.062 662.5 416.562 662.5 423.438C662.5 429.729 664.292 435.375 667.875 440.375C671.5 445.375 676.375 447.875 682.5 447.875C686.833 447.875 690.688 446.458 694.062 443.625C695.979 442 698.146 439.417 700.562 435.875L702.312 436.938C699.938 441.938 697.438 445.896 694.812 448.812C689.771 454.396 683.938 457.188 677.312 457.188C670.812 457.188 665.062 454.625 660.062 449.5C655.062 444.375 652.562 437.417 652.562 428.625C652.562 420 655.292 412.583 660.75 406.375C666.208 400.167 673.104 397.062 681.438 397.062ZM735.812 397.375C741.688 397.375 746.833 399.417 751.25 403.5C755.667 407.542 757.875 413.292 757.875 420.75H718.188C718.604 430.417 720.792 437.458 724.75 441.875C728.708 446.292 733.396 448.5 738.812 448.5C743.188 448.5 746.875 447.354 749.875 445.062C752.875 442.771 755.646 439.521 758.188 435.312L760.375 436.062C758.667 441.354 755.458 446.25 750.75 450.75C746.083 455.25 740.354 457.5 733.562 457.5C725.729 457.5 719.667 454.542 715.375 448.625C711.125 442.708 709 435.896 709 428.188C709 419.812 711.479 412.583 716.438 406.5C721.396 400.417 727.854 397.375 735.812 397.375ZM732.188 401.938C727.438 401.938 723.812 404.042 721.312 408.25C719.979 410.5 719.021 413.333 718.438 416.75H744.812C744.354 412.583 743.562 409.479 742.438 407.438C740.396 403.771 736.979 401.938 732.188 401.938ZM783.812 444.5C784.896 447.333 786.5 449.458 788.625 450.875C790.792 452.25 793.333 452.938 796.25 452.938C800.75 452.938 804.583 450.708 807.75 446.25C810.958 441.75 812.562 435.5 812.562 427.5C812.562 419.833 810.896 414.104 807.562 410.312C804.271 406.521 800.438 404.625 796.062 404.625C792.979 404.625 790.167 405.583 787.625 407.5C785.083 409.375 783.812 411.229 783.812 413.062V444.5ZM763.938 481.812C767.854 481.562 770.333 480.729 771.375 479.312C772.458 477.896 773 475.667 773 472.625V412.625C773 409.458 772.604 407.438 771.812 406.562C771.062 405.646 769.625 405.188 767.5 405.188C767.042 405.188 766.604 405.208 766.188 405.25C765.812 405.292 765.25 405.375 764.5 405.5V403.438L770.438 401.5C770.646 401.458 774.833 400.021 783 397.188C783.208 397.188 783.354 397.292 783.438 397.5C783.562 397.667 783.625 397.875 783.625 398.125V406.562C786.375 403.812 788.792 401.771 790.875 400.438C794.625 398.104 798.479 396.938 802.438 396.938C808.188 396.938 813.125 399.396 817.25 404.312C821.417 409.188 823.5 415.875 823.5 424.375C823.5 432.708 821 440.271 816 447.062C811.042 453.854 804.792 457.25 797.25 457.25C794.917 457.25 792.896 456.958 791.188 456.375C788.521 455.5 786.062 453.896 783.812 451.562V472C783.812 476.208 784.5 478.792 785.875 479.75C787.25 480.708 790.25 481.354 794.875 481.688V483.875H763.938V481.812ZM859.938 398.375V402.875H847.188L847.062 438.875C847.062 442.042 847.333 444.438 847.875 446.062C848.875 448.938 850.833 450.375 853.75 450.375C855.25 450.375 856.542 450.021 857.625 449.312C858.75 448.604 860.021 447.479 861.438 445.938L863.062 447.312L861.688 449.188C859.521 452.104 857.229 454.167 854.812 455.375C852.396 456.583 850.062 457.188 847.812 457.188C842.896 457.188 839.562 455 837.812 450.625C836.854 448.25 836.375 444.958 836.375 440.75V402.875H829.562C829.354 402.75 829.188 402.625 829.062 402.5C828.979 402.375 828.938 402.208 828.938 402C828.938 401.583 829.021 401.271 829.188 401.062C829.396 400.812 830 400.271 831 399.438C833.875 397.062 835.938 395.146 837.188 393.688C838.479 392.188 841.479 388.271 846.188 381.938C846.729 381.938 847.042 381.979 847.125 382.062C847.25 382.146 847.312 382.458 847.312 383V398.375H859.938ZM873.5 375.312C873.5 373.521 874.125 371.979 875.375 370.688C876.625 369.396 878.167 368.75 880 368.75C881.792 368.75 883.312 369.396 884.562 370.688C885.854 371.938 886.5 373.479 886.5 375.312C886.5 377.104 885.854 378.646 884.562 379.938C883.312 381.188 881.792 381.812 880 381.812C878.167 381.812 876.625 381.188 875.375 379.938C874.125 378.646 873.5 377.104 873.5 375.312ZM865.5 454.25C869.958 453.833 872.771 453.083 873.938 452C875.104 450.875 875.688 447.875 875.688 443V413.188C875.688 410.479 875.5 408.604 875.125 407.562C874.5 405.854 873.188 405 871.188 405C870.729 405 870.271 405.042 869.812 405.125C869.396 405.208 868.146 405.542 866.062 406.125V404.188L868.75 403.312C876.042 400.938 881.125 399.146 884 397.938C885.167 397.438 885.917 397.188 886.25 397.188C886.333 397.479 886.375 397.792 886.375 398.125V443C886.375 447.75 886.938 450.729 888.062 451.938C889.229 453.146 891.833 453.917 895.875 454.25V456H865.5V454.25ZM901.875 427C901.875 418.708 904.5 411.708 909.75 406C915.042 400.25 921.833 397.375 930.125 397.375C938.375 397.375 945.208 400.083 950.625 405.5C956.042 410.917 958.75 418.125 958.75 427.125C958.75 435.417 956.125 442.625 950.875 448.75C945.625 454.875 938.833 457.938 930.5 457.938C922.5 457.938 915.729 455 910.188 449.125C904.646 443.25 901.875 435.875 901.875 427ZM928.375 401.125C925.083 401.125 922.229 402.208 919.812 404.375C915.646 408.167 913.562 414.708 913.562 424C913.562 431.417 915.229 438.333 918.562 444.75C921.938 451.167 926.604 454.375 932.562 454.375C937.229 454.375 940.812 452.229 943.312 447.938C945.854 443.646 947.125 438.021 947.125 431.062C947.125 423.854 945.521 417.062 942.312 410.688C939.104 404.312 934.458 401.125 928.375 401.125ZM964.938 454.25C967.896 453.875 969.958 453.146 971.125 452.062C972.333 450.938 972.938 448.458 972.938 444.625V412.938C972.938 410.271 972.688 408.396 972.188 407.312C971.396 405.729 969.771 404.938 967.312 404.938C966.938 404.938 966.542 404.958 966.125 405C965.75 405.042 965.271 405.104 964.688 405.188V403C966.396 402.5 970.438 401.208 976.812 399.125L982.688 397.188C982.979 397.188 983.146 397.292 983.188 397.5C983.271 397.708 983.312 398 983.312 398.375V407.562C987.146 403.979 990.146 401.521 992.312 400.188C995.562 398.146 998.938 397.125 1002.44 397.125C1005.27 397.125 1007.85 397.938 1010.19 399.562C1014.69 402.729 1016.94 408.375 1016.94 416.5V445.688C1016.94 448.688 1017.54 450.854 1018.75 452.188C1019.96 453.521 1021.98 454.208 1024.81 454.25V456H998.125V454.25C1001.17 453.833 1003.29 453 1004.5 451.75C1005.71 450.458 1006.31 447.688 1006.31 443.438V416.75C1006.31 413.167 1005.65 410.208 1004.31 407.875C1002.98 405.5 1000.52 404.312 996.938 404.312C994.479 404.312 991.979 405.146 989.438 406.812C988.021 407.771 986.188 409.354 983.938 411.562V446.562C983.938 449.562 984.604 451.583 985.938 452.625C987.271 453.625 989.375 454.167 992.25 454.25V456H964.938V454.25ZM1047.5 457.5C1045.5 457.5 1043.81 456.812 1042.44 455.438C1041.06 454.021 1040.38 452.333 1040.38 450.375C1040.38 448.417 1041.06 446.75 1042.44 445.375C1043.85 444 1045.54 443.312 1047.5 443.312C1049.46 443.312 1051.12 444 1052.5 445.375C1053.88 446.75 1054.56 448.417 1054.56 450.375C1054.56 452.333 1053.88 454.021 1052.5 455.438C1051.17 456.812 1049.5 457.5 1047.5 457.5ZM1061.88 427C1061.88 418.708 1064.5 411.708 1069.75 406C1075.04 400.25 1081.83 397.375 1090.12 397.375C1098.38 397.375 1105.21 400.083 1110.62 405.5C1116.04 410.917 1118.75 418.125 1118.75 427.125C1118.75 435.417 1116.12 442.625 1110.88 448.75C1105.62 454.875 1098.83 457.938 1090.5 457.938C1082.5 457.938 1075.73 455 1070.19 449.125C1064.65 443.25 1061.88 435.875 1061.88 427ZM1088.38 401.125C1085.08 401.125 1082.23 402.208 1079.81 404.375C1075.65 408.167 1073.56 414.708 1073.56 424C1073.56 431.417 1075.23 438.333 1078.56 444.75C1081.94 451.167 1086.6 454.375 1092.56 454.375C1097.23 454.375 1100.81 452.229 1103.31 447.938C1105.85 443.646 1107.12 438.021 1107.12 431.062C1107.12 423.854 1105.52 417.062 1102.31 410.688C1099.1 404.312 1094.46 401.125 1088.38 401.125ZM1123.19 453.938C1127.02 453.604 1129.56 452.938 1130.81 451.938C1132.06 450.896 1132.69 448.708 1132.69 445.375V417.188C1132.69 413.062 1132.29 410.125 1131.5 408.375C1130.75 406.583 1129.35 405.688 1127.31 405.688C1126.9 405.688 1126.33 405.75 1125.62 405.875C1124.96 405.958 1124.25 406.083 1123.5 406.25V404.188C1125.88 403.354 1128.31 402.5 1130.81 401.625C1133.31 400.75 1135.04 400.125 1136 399.75C1138.08 398.958 1140.23 398.062 1142.44 397.062C1142.73 397.062 1142.9 397.167 1142.94 397.375C1143.02 397.583 1143.06 398.021 1143.06 398.688V408.938C1145.73 405.229 1148.29 402.333 1150.75 400.25C1153.25 398.167 1155.83 397.125 1158.5 397.125C1160.62 397.125 1162.35 397.771 1163.69 399.062C1165.02 400.312 1165.69 401.896 1165.69 403.812C1165.69 405.521 1165.17 406.958 1164.12 408.125C1163.12 409.292 1161.85 409.875 1160.31 409.875C1158.73 409.875 1157.12 409.146 1155.5 407.688C1153.92 406.229 1152.67 405.5 1151.75 405.5C1150.29 405.5 1148.5 406.688 1146.38 409.062C1144.25 411.396 1143.19 413.812 1143.19 416.312V444.5C1143.19 448.083 1144.02 450.583 1145.69 452C1147.35 453.375 1150.12 454.021 1154 453.938V456H1123.19V453.938ZM1175.56 467.562C1175.56 471.062 1177.52 473.479 1181.44 474.812C1185.4 476.146 1189.92 476.812 1195 476.812C1201.92 476.812 1207.54 475.604 1211.88 473.188C1216.21 470.812 1218.38 467.875 1218.38 464.375C1218.38 461.583 1216.62 459.729 1213.12 458.812C1210.96 458.271 1206.85 457.958 1200.81 457.875C1199.27 457.833 1197.65 457.771 1195.94 457.688C1194.23 457.646 1192.67 457.583 1191.25 457.5C1190.33 457.458 1188.85 457.292 1186.81 457C1184.77 456.708 1183.25 456.458 1182.25 456.25C1181.75 456.25 1180.52 457.562 1178.56 460.188C1176.56 462.854 1175.56 465.312 1175.56 467.562ZM1183.69 435C1179.9 433.75 1176.94 431.521 1174.81 428.312C1172.73 425.104 1171.69 421.5 1171.69 417.5C1171.69 412.625 1173.62 408 1177.5 403.625C1181.38 399.25 1186.85 397.062 1193.94 397.062C1196.98 397.062 1200.33 397.792 1204 399.25C1207.67 400.667 1211.19 401.375 1214.56 401.375C1215.44 401.375 1216.75 401.354 1218.5 401.312C1220.29 401.229 1221.58 401.188 1222.38 401.188H1223.12V406.25H1212.31C1213.06 408 1213.65 409.521 1214.06 410.812C1214.77 413.229 1215.12 415.521 1215.12 417.688C1215.12 422.438 1213.15 426.812 1209.19 430.812C1205.27 434.771 1199.98 436.75 1193.31 436.75C1192.27 436.75 1190.4 436.562 1187.69 436.188C1186.48 436.188 1184.88 437.208 1182.88 439.25C1180.92 441.292 1179.94 442.958 1179.94 444.25C1179.94 445.583 1181.4 446.562 1184.31 447.188C1186.23 447.604 1188.35 447.812 1190.69 447.812C1201.4 447.812 1208.67 448.417 1212.5 449.625C1218.79 451.583 1221.94 455.792 1221.94 462.25C1221.94 468.833 1218.25 474.083 1210.88 478C1203.54 481.917 1196.12 483.875 1188.62 483.875C1181.79 483.875 1176.38 482.479 1172.38 479.688C1168.38 476.938 1166.38 474.042 1166.38 471C1166.38 469.5 1166.9 468.021 1167.94 466.562C1169.02 465.146 1171.12 463.021 1174.25 460.188L1178.38 456.5L1179.12 455.75C1177.21 455 1175.77 454.271 1174.81 453.562C1173.15 452.271 1172.31 450.792 1172.31 449.125C1172.31 447.583 1173.02 445.896 1174.44 444.062C1175.9 442.188 1178.98 439.167 1183.69 435ZM1195.56 433.75C1197.85 433.75 1199.77 433.125 1201.31 431.875C1203.81 429.875 1205.06 426.396 1205.06 421.438C1205.06 417.479 1204.04 413.021 1202 408.062C1200 403.104 1196.65 400.625 1191.94 400.625C1187.85 400.625 1185.04 402.562 1183.5 406.438C1182.71 408.479 1182.31 411 1182.31 414C1182.31 419.083 1183.54 423.646 1186 427.688C1188.46 431.729 1191.65 433.75 1195.56 433.75Z" fill="white"/>
</g>
</g>
<defs>
<clipPath id="clip0_38_373">
<rect width="1440" height="941" fill="white"/>
</clipPath>
</defs>
</svg>
